{"title":"Football Focus - 31st January 2015 - 720p x264","uid":11671491,"size":727665276,"categoryP":"video","categoryS":"tv_shows","magnet":"?xt=urn:btih:58d3cc8c32d120cc9f379c984b8bb9d46cd5d271&amp;dn=Football+Focus+-+31st+January+2015+-+720p+x264&amp;tr=udp%3A%2F%2Ftracker.openbittorrent.com%3A80&amp;tr=udp%3A%2F%2Fopen.demonii.com%3A1337&amp;tr=udp%3A%2F%2Ftracker.coppersurfer.tk%3A6969&amp;tr=udp%3A%2F%2Fexodus.desync.com%3A6969","seeders":0,"leechers":1,"uploader":"rugbybill","files":3,"time":1422723175,"description":"SPORT: Football Focus\nOn: BBC 1 HD\nDate: Saturday 31st January 2015\nTime: 12:10 to 12:50\n\nDan Walker and guests take an in-depth look at the weekend's football fixtures,\n  the highlight being the eagerly awaited clash between early season pacesetters\n  Chelsea and Manchester City at Stamford Bridge. Other highlights on a busy day\n  of Premier League action include Manchester United's meeting with Leicester City\n  at Old Trafford, with Louis van Gaal's side looking to avenge September's shock\n  5-3 defeat, while Liverpool take on Sam Allardyce's West Ham side at Anfield.\n\nGeneral\nComplete name                            :\n  2015.01.31.Football.Focus.720p.x264.mp4\nFormat                                   : MPEG-4\nFormat profile                           : Base Media / Version 2\nCodec ID                                 : mp42\nFile size                                : 694 MiB\nDuration                                 : 39mn 11s\nOverall bit rate mode                    : Variable\nOverall bit rate                         : 2 475 Kbps\n\nVideo\nID                                       : 1\nFormat                                   : AVC\nFormat/Info                              : Advanced Video Codec\nFormat profile                           : &lt;a class=&quot;__cf_email__&quot; href=&quot;/cdn-cgi/l/email-protection&quot; data-cfemail=&quot;1f577678775f532b312e&quot;&gt;[email&amp;#160;protected]&lt;/a&gt;&lt;script cf-hash='f9e31' type=&quot;text/javascript&quot;&gt;\n/* &lt;![CDATA[ */!function(){try{var t=&quot;currentScript&quot;in document?document.currentScript:function(){for(var t=document.getElementsByTagName(&quot;script&quot;),e=t.length;e--;)if(t[e].getAttribute(&quot;cf-hash&quot;))return t[e]}();if(t&amp;&amp;t.previousSibling){var e,r,n,i,c=t.previousSibling,a=c.getAttribute(&quot;data-cfemail&quot;);if(a){for(e=&quot;&quot;,r=parseInt(a.substr(0,2),16),n=2;a.length-n;n+=2)i=parseInt(a.substr(n,2),16)^r,e+=String.fromCharCode(i);e=document.createTextNode(e),c.parentNode.replaceChild(e,c)}}}catch(u){}}();/* ]]&gt; */&lt;/script&gt;\nFormat settings, CABAC                   : Yes\nFormat settings, ReFrames                : 4 frames\nCodec ID                                 : avc1\nCodec ID/Info                            : Advanced Video Coding\nDuration                                 : 39mn 11s\nBit rate mode                            : Variable\nBit rate                                 : 2 350 Kbps\nWidth                                    : 1 280 pixels\nHeight                                   : 720 pixels\nDisplay aspect ratio                     : 16:9\nFrame rate mode                          : Constant\nFrame rate                               : 25.000 fps\nColor space                              : YUV\nChroma subsampling                       : 4:2:0\nBit depth                                : 8 bits\nScan type                                : Progressive\nBits/(Pixel*Frame)                       : 0.102\nStream size                              : 657 MiB (95%)\nWriting library                          : x264 core 130 r2273 b3065e6\nEncoding settings                        : cabac=1 / ref=3 / deblock=1:0:0 /\n  analyse=0x3:0x113 / me=hex / subme=7 / psy=1 / psy_rd=1.00:0.00 / mixed_ref=1 /\n  me_range=16 / chroma_me=1 / trellis=1 / 8x8dct=1 / cqm=0 / deadzone=21,11 /\n  fast_pskip=1 / chroma_qp_offset=-2 / threads=6 / lookahead_threads=1 /\n  sliced_threads=0 / nr=0 / decimate=1 / interlaced=0 / bluray_compat=0 /\n  constrained_intra=0 / bframes=3 / b_pyramid=2 / b_adapt=1 / b_bias=0 / direct=1\n  / weightb=1 / open_gop=0 / weightp=2 / keyint=250 / keyint_min=25 / scenecut=40\n  / intra_refresh=0 / rc_lookahead=40 / rc=abr / mbtree=1 / bitrate=2350 /\n  ratetol=1.0 / qcomp=0.60 / qpmin=0 / qpmax=69 / qpstep=4 / vbv_maxrate=62500 /\n  vbv_bufsize=78125 / nal_hrd=none / ip_ratio=1.40 / aq=1:1.00\n\nAudio\nID                                       : 2\nFormat                                   : AAC\nFormat/Info                              : Advanced Audio Codec\nFormat profile                           : LC\nCodec ID                                 : 40\nDuration                                 : 39mn 11s\nBit rate mode                            : Variable\nBit rate                                 : 128 Kbps\nMaximum bit rate                         : 190 Kbps\nChannel(s)                               : 2 channels\nChannel positions                        : Front: L R\nSampling rate                            : 48.0 KHz\nCompression mode                         : Lossy\nDelay relative to video                  : 80ms\nStream size                              : 35.9 MiB (5%)\nLanguage                                 : English","torrent":{"xt":"urn:btih:58d3cc8c32d120cc9f379c984b8bb9d46cd5d271","amp;dn":"Football+Focus+-+31st+January+2015+-+720p+x264","amp;tr":["udp%3A%2F%2Ftracker.openbittorrent.com%3A80","udp%3A%2F%2Fopen.demonii.com%3A1337","udp%3A%2F%2Ftracker.coppersurfer.tk%3A6969","udp%3A%2F%2Fexodus.desync.com%3A6969"],"infoHash":"58d3cc8c32d120cc9f379c984b8bb9d46cd5d271","infoHashBuffer":{"type":"Buffer","data":[88,211,204,140,50,209,32,204,159,55,156,152,75,139,185,212,108,213,210,113]},"announce":[],"urlList":[]}}